<svg xmlns="http://www.w3.org/2000/svg" viewBox="0 0 640 400" width="640" height="400" role="img" aria-label="Луна">
<defs>
<linearGradient id="skymoon21" x1="0" y1="0" x2="0.3" y2="1">
<stop offset="0%" stop-color="#ffffff"/><stop offset="52%" stop-color="#bec9fd"/><stop offset="100%" stop-color="#e0e7ff"/>
</linearGradient>
<radialGradient id="sunmoon21" cx="50%" cy="50%" r="50%">
<stop offset="0%" stop-color="#ffffff" stop-opacity=".95"/><stop offset="100%" stop-color="#ffffff" stop-opacity="0"/>
</radialGradient>
<filter id="softmoon21"><feGaussianBlur stdDeviation="12"/></filter>
</defs>
<rect width="640" height="400" fill="url(#skymoon21)"/>
<circle cx="499" cy="96" r="168" fill="url(#sunmoon21)"/>
<circle cx="98" cy="274" r="2.0" fill="#ffffff" opacity="0.86"/><circle cx="277" cy="126" r="1.9" fill="#ffffff" opacity="0.59"/><circle cx="136" cy="263" r="2.7" fill="#ffffff" opacity="0.83"/><circle cx="467" cy="252" r="1.0" fill="#ffffff" opacity="0.42"/><circle cx="429" cy="335" r="1.6" fill="#ffffff" opacity="0.62"/><circle cx="320" cy="384" r="1.5" fill="#ffffff" opacity="0.37"/><circle cx="407" cy="35" r="2.7" fill="#ffffff" opacity="0.74"/><circle cx="123" cy="342" r="1.3" fill="#ffffff" opacity="0.40"/><circle cx="224" cy="329" r="1.3" fill="#ffffff" opacity="0.76"/><circle cx="347" cy="55" r="2.4" fill="#ffffff" opacity="0.86"/><circle cx="611" cy="144" r="2.2" fill="#ffffff" opacity="0.81"/><circle cx="207" cy="63" r="2.2" fill="#ffffff" opacity="0.52"/><circle cx="519" cy="302" r="2.4" fill="#ffffff" opacity="0.74"/><circle cx="68" cy="349" r="1.9" fill="#ffffff" opacity="0.32"/><circle cx="570" cy="66" r="1.8" fill="#ffffff" opacity="0.41"/><circle cx="105" cy="261" r="2.2" fill="#ffffff" opacity="0.64"/><circle cx="195" cy="349" r="1.8" fill="#ffffff" opacity="0.72"/><circle cx="432" cy="223" r="1.5" fill="#ffffff" opacity="0.51"/><circle cx="343" cy="226" r="2.8" fill="#ffffff" opacity="0.47"/><circle cx="525" cy="77" r="1.1" fill="#ffffff" opacity="0.81"/><circle cx="488" cy="349" r="2.7" fill="#ffffff" opacity="0.83"/><circle cx="46" cy="136" r="1.2" fill="#ffffff" opacity="0.76"/><circle cx="245" cy="399" r="1.7" fill="#ffffff" opacity="0.70"/><circle cx="445" cy="187" r="1.5" fill="#ffffff" opacity="0.65"/><circle cx="530" cy="148" r="1.6" fill="#ffffff" opacity="0.71"/><circle cx="258" cy="12" r="1.9" fill="#ffffff" opacity="0.87"/><circle cx="83" cy="108" r="2.6" fill="#ffffff" opacity="0.72"/><circle cx="139" cy="129" r="1.3" fill="#ffffff" opacity="0.60"/><circle cx="559" cy="311" r="1.2" fill="#ffffff" opacity="0.35"/><circle cx="177" cy="117" r="1.4" fill="#ffffff" opacity="0.54"/><circle cx="321" cy="279" r="1.4" fill="#ffffff" opacity="0.54"/><circle cx="581" cy="170" r="2.1" fill="#ffffff" opacity="0.58"/><circle cx="22" cy="340" r="1.7" fill="#ffffff" opacity="0.42"/><circle cx="308" cy="176" r="1.7" fill="#ffffff" opacity="0.85"/><circle cx="361" cy="251" r="2.8" fill="#ffffff" opacity="0.45"/><circle cx="564" cy="205" r="1.9" fill="#ffffff" opacity="0.32"/><circle cx="552" cy="111" r="1.1" fill="#ffffff" opacity="0.40"/><circle cx="407" cy="145" r="1.2" fill="#ffffff" opacity="0.33"/><circle cx="216" cy="243" r="2.0" fill="#ffffff" opacity="0.38"/><circle cx="613" cy="353" r="2.1" fill="#ffffff" opacity="0.74"/><circle cx="22" cy="380" r="1.1" fill="#ffffff" opacity="0.69"/><circle cx="541" cy="257" r="1.2" fill="#ffffff" opacity="0.87"/><circle cx="110" cy="300" r="2.0" fill="#ffffff" opacity="0.51"/><circle cx="461" cy="378" r="2.4" fill="#ffffff" opacity="0.64"/><circle cx="512" cy="71" r="2.5" fill="#ffffff" opacity="0.59"/><circle cx="51" cy="127" r="1.9" fill="#ffffff" opacity="0.72"/>
<path d="M0 400 L0 288 Q160 232 320 296 Q499 360 640 280 L640 400 Z" fill="#bec9fd" opacity=".5"/><path d="M0 400 L0 336 Q224 296 435 352 Q563 384 640 336 L640 400 Z" fill="#ecf1ff" opacity=".55"/>
<circle cx="461" cy="120" r="80" fill="#fffdf5" opacity=".95"/><circle cx="422" cy="104" r="80" fill="#bec9fd" opacity=".6"/><rect x="77" y="240" width="24" height="34" rx="10" fill="#e0e7ff" opacity=".4"/><rect x="111" y="266" width="24" height="34" rx="10" fill="#e0e7ff" opacity=".4"/><rect x="145" y="292" width="24" height="34" rx="10" fill="#e0e7ff" opacity=".4"/><rect x="179" y="240" width="24" height="34" rx="10" fill="#e0e7ff" opacity=".4"/><rect x="213" y="266" width="24" height="34" rx="10" fill="#e0e7ff" opacity=".4"/><rect x="247" y="292" width="24" height="34" rx="10" fill="#e0e7ff" opacity=".4"/>
<path d="M0 0 C8.1 -7.4 17.0 -1.5 13.3 5.2 C9.6 11.8 2.2 8.9 0 0 Z transform="translate(262.2 228.2) rotate(77)"" fill="#ffffff" opacity="0.26"/><path d="M0 0 C7.5 -6.8 15.7 -1.4 12.3 4.8 C8.9 10.9 2.0 8.2 0 0 Z transform="translate(56.9 161.5) rotate(222)"" fill="#ffffff" opacity="0.39"/><path d="M0 0 C5.4 -4.9 11.4 -1.0 8.9 3.5 C6.4 7.9 1.5 5.9 0 0 Z transform="translate(605.0 174.4) rotate(213)"" fill="#ffffff" opacity="0.42"/><path d="M0 0 C6.2 -5.7 13.1 -1.1 10.2 4.0 C7.4 9.1 1.7 6.8 0 0 Z transform="translate(15.4 176.2) rotate(348)"" fill="#ffffff" opacity="0.31"/><path d="M0 0 C4.8 -4.4 10.1 -0.9 7.9 3.1 C5.7 7.0 1.3 5.3 0 0 Z transform="translate(571.2 148.3) rotate(17)"" fill="#ffffff" opacity="0.53"/><path d="M0 0 C8.3 -7.6 17.4 -1.5 13.6 5.3 C9.8 12.1 2.3 9.1 0 0 Z transform="translate(415.2 302.3) rotate(74)"" fill="#ffffff" opacity="0.41"/><path d="M0 0 C6.5 -5.9 13.5 -1.2 10.6 4.1 C7.6 9.4 1.8 7.1 0 0 Z transform="translate(249.1 236.6) rotate(211)"" fill="#ffffff" opacity="0.53"/><path d="M0 0 C7.6 -6.9 16.0 -1.4 12.5 4.9 C9.0 11.1 2.1 8.3 0 0 Z transform="translate(248.4 137.8) rotate(167)"" fill="#ffffff" opacity="0.32"/><path d="M0 0 C4.9 -4.4 10.2 -0.9 7.9 3.1 C5.7 7.1 1.3 5.3 0 0 Z transform="translate(151.1 295.8) rotate(224)"" fill="#ffffff" opacity="0.53"/><path d="M0 0 C6.2 -5.6 12.9 -1.1 10.1 3.9 C7.3 9.0 1.7 6.8 0 0 Z transform="translate(58.1 235.0) rotate(248)"" fill="#ffffff" opacity="0.25"/><path d="M0 0 C6.7 -6.1 14.0 -1.2 10.9 4.2 C7.9 9.7 1.8 7.3 0 0 Z transform="translate(245.9 352.2) rotate(144)"" fill="#ffffff" opacity="0.42"/><path d="M0 0 C8.2 -7.5 17.2 -1.5 13.5 5.2 C9.7 12.0 2.2 9.0 0 0 Z transform="translate(245.3 75.3) rotate(85)"" fill="#ffffff" opacity="0.25"/><path d="M0 0 C5.5 -5.0 11.4 -1.0 9.0 3.5 C6.5 8.0 1.5 6.0 0 0 Z transform="translate(596.5 207.0) rotate(91)"" fill="#ffffff" opacity="0.45"/>
</svg>