<svg xmlns="http://www.w3.org/2000/svg" viewBox="0 0 320 320" width="320" height="320" role="img" aria-label="Аниме-девочка">
<defs>
<radialGradient id="bg1000" cx="50%" cy="34%" r="78%">
<stop offset="0%" stop-color="#ffcddf"/><stop offset="100%" stop-color="#ffffff"/>
</radialGradient>
<linearGradient id="hair1000" x1="0" y1="0" x2="0" y2="1">
<stop offset="0%" stop-color="#ffc9d6"/><stop offset="60%" stop-color="#ffb7c8"/><stop offset="100%" stop-color="#d094a6"/>
</linearGradient>
<linearGradient id="cloth1000" x1="0" y1="0" x2="0" y2="1">
<stop offset="0%" stop-color="#ffffff"/><stop offset="100%" stop-color="#f4f1ff"/>
</linearGradient>
</defs>
<rect width="320" height="320" fill="url(#bg1000)"/>
<path d="M0 0 C6.1 -5.6 12.8 -1.1 10.0 3.9 C7.2 8.9 1.7 6.7 0 0 Z transform="translate(138.3 147.7) rotate(302)"" fill="#ffffff" opacity="0.26"/><path d="M0 0 C4.3 -3.9 8.9 -0.8 7.0 2.7 C5.0 6.2 1.2 4.7 0 0 Z transform="translate(73.0 236.4) rotate(242)"" fill="#ffffff" opacity="0.39"/><path d="M0 0 C5.6 -5.1 11.7 -1.0 9.2 3.6 C6.6 8.2 1.5 6.1 0 0 Z transform="translate(150.5 257.0) rotate(39)"" fill="#ffffff" opacity="0.32"/><path d="M0 0 C3.9 -3.6 8.2 -0.7 6.4 2.5 C4.6 5.7 1.1 4.3 0 0 Z transform="translate(48.6 33.2) rotate(328)"" fill="#ffffff" opacity="0.22"/><path d="M0 0 C7.6 -6.9 16.0 -1.4 12.5 4.9 C9.0 11.1 2.1 8.3 0 0 Z transform="translate(169.4 196.1) rotate(189)"" fill="#ffffff" opacity="0.32"/><path d="M0 0 C7.4 -6.7 15.4 -1.3 12.1 4.7 C8.7 10.7 2.0 8.0 0 0 Z transform="translate(285.6 246.3) rotate(233)"" fill="#ffffff" opacity="0.41"/><path d="M0 0 C4.9 -4.4 10.1 -0.9 7.9 3.1 C5.7 7.1 1.3 5.3 0 0 Z transform="translate(294.0 166.5) rotate(126)"" fill="#ffffff" opacity="0.32"/><path d="M0 0 C4.9 -4.5 10.3 -0.9 8.0 3.1 C5.8 7.1 1.3 5.4 0 0 Z transform="translate(201.5 294.7) rotate(298)"" fill="#ffffff" opacity="0.32"/><path d="M0 0 C4.5 -4.1 9.4 -0.8 7.4 2.9 C5.3 6.6 1.2 4.9 0 0 Z transform="translate(79.6 231.1) rotate(325)"" fill="#ffffff" opacity="0.32"/><path d="M0 0 C5.0 -4.5 10.4 -0.9 8.1 3.2 C5.9 7.2 1.4 5.4 0 0 Z transform="translate(276.7 25.9) rotate(226)"" fill="#ffffff" opacity="0.44"/><path d="M0 0 C6.7 -6.1 14.1 -1.2 11.0 4.3 C8.0 9.8 1.8 7.4 0 0 Z transform="translate(272.1 37.8) rotate(336)"" fill="#ffffff" opacity="0.23"/>
<circle cx="160" cy="152" r="126" fill="#ffffff" opacity=".45"/>
<ellipse cx="73" cy="220" rx="24" ry="56" fill="#ffb7c8" transform="rotate(-16 73 220)"/><ellipse cx="73" cy="276" rx="12" ry="20" fill="#d094a6"/><ellipse cx="247" cy="220" rx="24" ry="56" fill="#ffb7c8" transform="rotate(16 247 220)"/><ellipse cx="247" cy="276" rx="12" ry="20" fill="#d094a6"/>
<path d="M56 320 C64 244, 256 244, 264 320 Z" fill="url(#cloth1000)"/>
<path d="M134 233 L160 188 L186 233 Z" fill="#fbd5c0"/>
<ellipse cx="160" cy="158" rx="81" ry="87" fill="#fbd5c0"/>
<g>
<path d="M87 128 C75 97, 245 97, 233 128 L241 144 L79 144 Z" fill="url(#hair1000)"/>
</g>
<path d="M79.02897587808373 142.0 C73.02897587808373 70.83793855700347, 246.9710241219163 70.83793855700347, 240.9710241219163 142.0 C208.58261447314976 114.0, 176.19420482438326 128.0, 164.0 124.0 C135.70869276342512 120.0, 103.32028311465862 128.0, 79.02897587808373 142.0 Z" fill="#ffb7c8"/><path d="M87.12607829027536 140.0 C119.51448793904186 118.0, 151.90289758780838 126.0, 155.95144879390418 150.0 C127.61159035123349 142.0, 103.32028311465862 136.0, 87.12607829027536 140.0 Z" fill="#ffc9d6" opacity=".55"/>
<ellipse cx="130" cy="170" rx="13.6" ry="12.1" fill="#2f8fd6"/><ellipse cx="130" cy="173" rx="8.4" ry="8.2" fill="#2b1c33"/><circle cx="126" cy="164" r="4.1" fill="#ffffff"/><circle cx="135" cy="176" r="2.2" fill="#ffffff" opacity=".9"/><path d="M113 142 Q130 133 147 141" stroke="#3b2a45" stroke-width="3.4" fill="none" stroke-linecap="round"/><ellipse cx="190" cy="170" rx="13.6" ry="12.1" fill="#2f8fd6"/><ellipse cx="190" cy="173" rx="8.4" ry="8.2" fill="#2b1c33"/><circle cx="186" cy="164" r="4.1" fill="#ffffff"/><circle cx="195" cy="176" r="2.2" fill="#ffffff" opacity=".9"/><path d="M173 142 Q190 133 207 141" stroke="#3b2a45" stroke-width="3.4" fill="none" stroke-linecap="round"/>
<ellipse cx="116" cy="188" rx="11" ry="6.5" fill="#ff9db4" opacity=".5"/>
<ellipse cx="204" cy="188" rx="11" ry="6.5" fill="#ff9db4" opacity=".5"/>
<path d="M151 194 Q160 202 169 194" stroke="#c76b7f" stroke-width="3" fill="none" stroke-linecap="round"/>

<g opacity=".85"><path d="M0 0 C5.0 -4.5 10.3 -0.9 8.1 3.1 C5.9 7.2 1.3 5.4 0 0 Z transform="translate(281.0 202.6) rotate(288)"" fill="#ff8fb8" opacity=".5"/><path d="M0 0 C5.0 -4.5 10.3 -0.9 8.1 3.1 C5.9 7.2 1.3 5.4 0 0 Z transform="translate(283.2 305.1) rotate(36)"" fill="#ff8fb8" opacity=".5"/><path d="M0 0 C5.0 -4.5 10.3 -0.9 8.1 3.1 C5.9 7.2 1.3 5.4 0 0 Z transform="translate(145.1 248.6) rotate(191)"" fill="#ff8fb8" opacity=".5"/><path d="M0 0 C5.0 -4.5 10.3 -0.9 8.1 3.1 C5.9 7.2 1.3 5.4 0 0 Z transform="translate(176.9 236.1) rotate(154)"" fill="#ff8fb8" opacity=".5"/><path d="M0 0 C5.0 -4.5 10.3 -0.9 8.1 3.1 C5.9 7.2 1.3 5.4 0 0 Z transform="translate(116.4 220.3) rotate(265)"" fill="#ff8fb8" opacity=".5"/><path d="M0 0 C5.0 -4.5 10.3 -0.9 8.1 3.1 C5.9 7.2 1.3 5.4 0 0 Z transform="translate(260.1 242.2) rotate(346)"" fill="#ff8fb8" opacity=".5"/></g>
</svg>