<svg xmlns="http://www.w3.org/2000/svg" viewBox="0 0 320 320" width="320" height="320" role="img" aria-label="Аниме-девочка">
<defs>
<radialGradient id="bg1370" cx="50%" cy="34%" r="78%">
<stop offset="0%" stop-color="#fdcea7"/><stop offset="100%" stop-color="#ffffff"/>
</radialGradient>
<linearGradient id="hair1370" x1="0" y1="0" x2="0" y2="1">
<stop offset="0%" stop-color="#fff4ca"/><stop offset="60%" stop-color="#fff1b8"/><stop offset="100%" stop-color="#d0c29a"/>
</linearGradient>
<linearGradient id="cloth1370" x1="0" y1="0" x2="0" y2="1">
<stop offset="0%" stop-color="#ffffff"/><stop offset="100%" stop-color="#f4f1ff"/>
</linearGradient>
</defs>
<rect width="320" height="320" fill="url(#bg1370)"/>
<path d="M0 0 C6.9 -6.2 14.4 -1.2 11.2 4.4 C8.1 10.0 1.9 7.5 0 0 Z transform="translate(49.3 243.7) rotate(112)"" fill="#ffffff" opacity="0.46"/><path d="M0 0 C5.3 -4.8 11.1 -1.0 8.7 3.4 C6.3 7.7 1.4 5.8 0 0 Z transform="translate(83.6 167.2) rotate(284)"" fill="#ffffff" opacity="0.35"/><path d="M0 0 C6.8 -6.2 14.3 -1.2 11.2 4.3 C8.1 9.9 1.9 7.4 0 0 Z transform="translate(193.4 264.4) rotate(169)"" fill="#ffffff" opacity="0.41"/><path d="M0 0 C8.2 -7.4 17.1 -1.5 13.3 5.2 C9.6 11.9 2.2 8.9 0 0 Z transform="translate(63.2 173.0) rotate(258)"" fill="#ffffff" opacity="0.44"/><path d="M0 0 C5.3 -4.8 11.1 -1.0 8.7 3.4 C6.3 7.7 1.4 5.8 0 0 Z transform="translate(140.4 39.7) rotate(312)"" fill="#ffffff" opacity="0.41"/><path d="M0 0 C7.5 -6.8 15.6 -1.4 12.2 4.8 C8.8 10.9 2.0 8.2 0 0 Z transform="translate(205.2 61.6) rotate(56)"" fill="#ffffff" opacity="0.46"/><path d="M0 0 C7.1 -6.4 14.8 -1.3 11.6 4.5 C8.4 10.3 1.9 7.7 0 0 Z transform="translate(74.5 282.5) rotate(302)"" fill="#ffffff" opacity="0.35"/><path d="M0 0 C5.2 -4.7 10.8 -0.9 8.4 3.3 C6.1 7.5 1.4 5.6 0 0 Z transform="translate(99.7 257.1) rotate(115)"" fill="#ffffff" opacity="0.48"/><path d="M0 0 C7.8 -7.1 16.2 -1.4 12.7 4.9 C9.2 11.3 2.1 8.5 0 0 Z transform="translate(57.9 133.0) rotate(65)"" fill="#ffffff" opacity="0.43"/><path d="M0 0 C6.5 -5.9 13.5 -1.2 10.6 4.1 C7.6 9.4 1.8 7.0 0 0 Z transform="translate(152.9 235.9) rotate(260)"" fill="#ffffff" opacity="0.28"/><path d="M0 0 C8.0 -7.3 16.7 -1.5 13.1 5.1 C9.4 11.6 2.2 8.7 0 0 Z transform="translate(263.3 133.4) rotate(148)"" fill="#ffffff" opacity="0.42"/>
<circle cx="160" cy="152" r="126" fill="#ffffff" opacity=".45"/>
<ellipse cx="77" cy="220" rx="24" ry="56" fill="#fff1b8" transform="rotate(-16 77 220)"/><ellipse cx="77" cy="276" rx="12" ry="20" fill="#d0c29a"/><ellipse cx="243" cy="220" rx="24" ry="56" fill="#fff1b8" transform="rotate(16 243 220)"/><ellipse cx="243" cy="276" rx="12" ry="20" fill="#d0c29a"/>
<path d="M56 320 C64 244, 256 244, 264 320 Z" fill="url(#cloth1370)"/>
<path d="M134 236 L160 189 L186 236 Z" fill="#ffe0d0"/>
<ellipse cx="160" cy="158" rx="77" ry="90" fill="#ffe0d0"/>
<g>
<path d="M91 128 C79 95, 241 95, 229 128 L237 144 L83 144 Z" fill="url(#hair1370)"/>
</g>
<path d="M82.81435617340719 142.0 C76.81435617340719 67.76031799566394, 243.1856438265928 67.76031799566394, 237.1856438265928 142.0 C206.31138629595569 114.0, 175.43712876531856 128.0, 164.0 124.0 C136.84430685202216 120.0, 105.97004932138503 128.0, 82.81435617340719 142.0 Z" fill="#fff1b8"/><path d="M90.53292055606647 140.0 C121.4071780867036 118.0, 152.28143561734072 126.0, 156.14071780867036 150.0 C129.12574246936288 142.0, 105.97004932138503 136.0, 90.53292055606647 140.0 Z" fill="#fff4ca" opacity=".55"/>
<ellipse cx="130" cy="170" rx="14.3" ry="11.3" fill="#d97706"/><ellipse cx="130" cy="173" rx="8.9" ry="7.7" fill="#2b1c33"/><circle cx="126" cy="164" r="4.3" fill="#ffffff"/><circle cx="135" cy="176" r="2.3" fill="#ffffff" opacity=".9"/><path d="M113 143 Q130 134 147 142" stroke="#3b2a45" stroke-width="3.4" fill="none" stroke-linecap="round"/><ellipse cx="190" cy="170" rx="14.3" ry="11.3" fill="#d97706"/><ellipse cx="190" cy="173" rx="8.9" ry="7.7" fill="#2b1c33"/><circle cx="186" cy="164" r="4.3" fill="#ffffff"/><circle cx="195" cy="176" r="2.3" fill="#ffffff" opacity=".9"/><path d="M173 143 Q190 134 207 142" stroke="#3b2a45" stroke-width="3.4" fill="none" stroke-linecap="round"/>
<ellipse cx="116" cy="188" rx="11" ry="6.5" fill="#ff9db4" opacity=".5"/>
<ellipse cx="204" cy="188" rx="11" ry="6.5" fill="#ff9db4" opacity=".5"/>
<path d="M151 194 Q160 202 169 194" stroke="#c76b7f" stroke-width="3" fill="none" stroke-linecap="round"/>
<g transform="translate(209 116)"><path d="M0 0 L-24 -13 L-24 13 Z" fill="#ffd166"/><path d="M0 0 L24 -13 L24 13 Z" fill="#ffd166"/><circle r="6" fill="#d9b05c"/><path d="M0 6 L-9 24 L-2 20 L0 27 L4 20 L11 24 Z" fill="#ffd166" opacity=".9"/></g>
<g opacity=".85"><path d="M0 0 C5.0 -4.5 10.3 -0.9 8.1 3.1 C5.9 7.2 1.3 5.4 0 0 Z transform="translate(284.0 235.1) rotate(73)"" fill="#fb923c" opacity=".5"/><path d="M0 0 C5.0 -4.5 10.3 -0.9 8.1 3.1 C5.9 7.2 1.3 5.4 0 0 Z transform="translate(23.9 282.0) rotate(64)"" fill="#fb923c" opacity=".5"/><path d="M0 0 C5.0 -4.5 10.3 -0.9 8.1 3.1 C5.9 7.2 1.3 5.4 0 0 Z transform="translate(79.1 308.9) rotate(106)"" fill="#fb923c" opacity=".5"/><path d="M0 0 C5.0 -4.5 10.3 -0.9 8.1 3.1 C5.9 7.2 1.3 5.4 0 0 Z transform="translate(107.2 227.4) rotate(64)"" fill="#fb923c" opacity=".5"/><path d="M0 0 C5.0 -4.5 10.3 -0.9 8.1 3.1 C5.9 7.2 1.3 5.4 0 0 Z transform="translate(206.7 263.6) rotate(93)"" fill="#fb923c" opacity=".5"/><path d="M0 0 C5.0 -4.5 10.3 -0.9 8.1 3.1 C5.9 7.2 1.3 5.4 0 0 Z transform="translate(107.0 236.9) rotate(149)"" fill="#fb923c" opacity=".5"/></g>
</svg>