<svg xmlns="http://www.w3.org/2000/svg" viewBox="0 0 320 320" width="320" height="320" role="img" aria-label="Аниме-девочка">
<defs>
<radialGradient id="bg1851" cx="50%" cy="34%" r="78%">
<stop offset="0%" stop-color="#f8d9fe"/><stop offset="100%" stop-color="#ffffff"/>
</radialGradient>
<linearGradient id="hair1851" x1="0" y1="0" x2="0" y2="1">
<stop offset="0%" stop-color="#ffb4c4"/><stop offset="60%" stop-color="#ff9bb0"/><stop offset="100%" stop-color="#d07f93"/>
</linearGradient>
<linearGradient id="cloth1851" x1="0" y1="0" x2="0" y2="1">
<stop offset="0%" stop-color="#ffffff"/><stop offset="100%" stop-color="#fff5f8"/>
</linearGradient>
</defs>
<rect width="320" height="320" fill="url(#bg1851)"/>
<path d="M0 0 C4.9 -4.4 10.2 -0.9 8.0 3.1 C5.8 7.1 1.3 5.3 0 0 Z transform="translate(105.1 136.9) rotate(148)"" fill="#ffffff" opacity="0.39"/><path d="M0 0 C4.2 -3.8 8.8 -0.8 6.9 2.7 C5.0 6.1 1.1 4.6 0 0 Z transform="translate(81.2 213.1) rotate(150)"" fill="#ffffff" opacity="0.25"/><path d="M0 0 C6.1 -5.6 12.8 -1.1 10.0 3.9 C7.2 8.9 1.7 6.7 0 0 Z transform="translate(243.8 145.5) rotate(35)"" fill="#ffffff" opacity="0.40"/><path d="M0 0 C4.4 -4.0 9.2 -0.8 7.2 2.8 C5.2 6.4 1.2 4.8 0 0 Z transform="translate(109.4 52.9) rotate(100)"" fill="#ffffff" opacity="0.32"/><path d="M0 0 C5.6 -5.1 11.7 -1.0 9.2 3.6 C6.6 8.1 1.5 6.1 0 0 Z transform="translate(106.3 219.7) rotate(225)"" fill="#ffffff" opacity="0.44"/><path d="M0 0 C6.0 -5.4 12.5 -1.1 9.8 3.8 C7.1 8.7 1.6 6.5 0 0 Z transform="translate(98.5 177.6) rotate(208)"" fill="#ffffff" opacity="0.30"/><path d="M0 0 C6.9 -6.3 14.5 -1.3 11.3 4.4 C8.2 10.1 1.9 7.6 0 0 Z transform="translate(276.2 264.2) rotate(18)"" fill="#ffffff" opacity="0.50"/><path d="M0 0 C6.5 -5.9 13.5 -1.2 10.6 4.1 C7.7 9.4 1.8 7.1 0 0 Z transform="translate(260.2 203.9) rotate(294)"" fill="#ffffff" opacity="0.28"/><path d="M0 0 C4.2 -3.8 8.7 -0.8 6.8 2.7 C4.9 6.1 1.1 4.5 0 0 Z transform="translate(262.6 295.6) rotate(244)"" fill="#ffffff" opacity="0.23"/><path d="M0 0 C3.9 -3.6 8.2 -0.7 6.4 2.5 C4.6 5.7 1.1 4.3 0 0 Z transform="translate(39.8 177.1) rotate(108)"" fill="#ffffff" opacity="0.24"/><path d="M0 0 C7.4 -6.7 15.4 -1.3 12.1 4.7 C8.7 10.7 2.0 8.0 0 0 Z transform="translate(122.6 197.2) rotate(101)"" fill="#ffffff" opacity="0.49"/>
<circle cx="160" cy="152" r="126" fill="#ffffff" opacity=".45"/>
<ellipse cx="72" cy="220" rx="24" ry="56" fill="#ff9bb0" transform="rotate(-16 72 220)"/><ellipse cx="72" cy="276" rx="12" ry="20" fill="#d07f93"/><ellipse cx="248" cy="220" rx="24" ry="56" fill="#ff9bb0" transform="rotate(16 248 220)"/><ellipse cx="248" cy="276" rx="12" ry="20" fill="#d07f93"/>
<path d="M56 320 C64 244, 256 244, 264 320 Z" fill="url(#cloth1851)"/>
<path d="M134 235 L160 188 L186 235 Z" fill="#ffe0d0"/>
<ellipse cx="160" cy="158" rx="82" ry="89" fill="#ffe0d0"/>
<g>
<path d="M86 128 C73 96, 247 96, 234 128 L242 144 L78 144 Z" fill="url(#hair1851)"/>
</g>
<path d="M77.61303505261402 142.0 C71.61303505261402 68.75193291882431, 248.386964947386 68.75193291882431, 242.386964947386 142.0 C209.43217896843157 114.0, 176.4773929894772 128.0, 164.0 124.0 C135.2839105157842 120.0, 102.32912453682982 128.0, 77.61303505261402 142.0 Z" fill="#ff9bb0"/><path d="M85.85173154735261 140.0 C118.806517526307 118.0, 151.7613035052614 126.0, 155.8806517526307 150.0 C127.04521402104561 142.0, 102.32912453682982 136.0, 85.85173154735261 140.0 Z" fill="#ffb4c4" opacity=".55"/>
<ellipse cx="130" cy="170" rx="17.0" ry="12.8" fill="#0f9c96"/><ellipse cx="130" cy="173" rx="10.6" ry="8.7" fill="#2b1c33"/><circle cx="125" cy="164" r="5.1" fill="#ffffff"/><circle cx="136" cy="176" r="2.7" fill="#ffffff" opacity=".9"/><path d="M110 141 Q130 132 150 140" stroke="#3b2a45" stroke-width="3.4" fill="none" stroke-linecap="round"/><ellipse cx="190" cy="170" rx="17.0" ry="12.8" fill="#0f9c96"/><ellipse cx="190" cy="173" rx="10.6" ry="8.7" fill="#2b1c33"/><circle cx="185" cy="164" r="5.1" fill="#ffffff"/><circle cx="196" cy="176" r="2.7" fill="#ffffff" opacity=".9"/><path d="M170 141 Q190 132 210 140" stroke="#3b2a45" stroke-width="3.4" fill="none" stroke-linecap="round"/>
<ellipse cx="116" cy="188" rx="11" ry="6.5" fill="#ff9db4" opacity=".5"/>
<ellipse cx="204" cy="188" rx="11" ry="6.5" fill="#ff9db4" opacity=".5"/>
<path d="M151 194 Q160 202 169 194" stroke="#c76b7f" stroke-width="3" fill="none" stroke-linecap="round"/>
<g transform="translate(205 117)"><path d="M0 0 L-24 -13 L-24 13 Z" fill="#7dd3fc"/><path d="M0 0 L24 -13 L24 13 Z" fill="#7dd3fc"/><circle r="6" fill="#6eb2d7"/><path d="M0 6 L-9 24 L-2 20 L0 27 L4 20 L11 24 Z" fill="#7dd3fc" opacity=".9"/></g>
<g opacity=".85"><path d="M0 0 C5.0 -4.5 10.3 -0.9 8.1 3.1 C5.9 7.2 1.3 5.4 0 0 Z transform="translate(151.9 304.5) rotate(179)"" fill="#f0abfc" opacity=".5"/><path d="M0 0 C5.0 -4.5 10.3 -0.9 8.1 3.1 C5.9 7.2 1.3 5.4 0 0 Z transform="translate(101.0 301.7) rotate(314)"" fill="#f0abfc" opacity=".5"/><path d="M0 0 C5.0 -4.5 10.3 -0.9 8.1 3.1 C5.9 7.2 1.3 5.4 0 0 Z transform="translate(59.1 244.5) rotate(95)"" fill="#f0abfc" opacity=".5"/><path d="M0 0 C5.0 -4.5 10.3 -0.9 8.1 3.1 C5.9 7.2 1.3 5.4 0 0 Z transform="translate(279.8 203.9) rotate(131)"" fill="#f0abfc" opacity=".5"/><path d="M0 0 C5.0 -4.5 10.3 -0.9 8.1 3.1 C5.9 7.2 1.3 5.4 0 0 Z transform="translate(288.3 202.6) rotate(340)"" fill="#f0abfc" opacity=".5"/><path d="M0 0 C5.0 -4.5 10.3 -0.9 8.1 3.1 C5.9 7.2 1.3 5.4 0 0 Z transform="translate(37.6 274.4) rotate(332)"" fill="#f0abfc" opacity=".5"/></g>
</svg>