<svg xmlns="http://www.w3.org/2000/svg" viewBox="0 0 320 320" width="320" height="320" role="img" aria-label="Аниме-девочка">
<defs>
<radialGradient id="bg3923" cx="50%" cy="34%" r="78%">
<stop offset="0%" stop-color="#fdcea7"/><stop offset="100%" stop-color="#ffffff"/>
</radialGradient>
<linearGradient id="hair3923" x1="0" y1="0" x2="0" y2="1">
<stop offset="0%" stop-color="#f9bed3"/><stop offset="60%" stop-color="#f7a8c4"/><stop offset="100%" stop-color="#ca89a3"/>
</linearGradient>
<linearGradient id="cloth3923" x1="0" y1="0" x2="0" y2="1">
<stop offset="0%" stop-color="#ffffff"/><stop offset="100%" stop-color="#f4f1ff"/>
</linearGradient>
</defs>
<rect width="320" height="320" fill="url(#bg3923)"/>
<path d="M0 0 C5.3 -4.8 11.0 -1.0 8.6 3.4 C6.2 7.7 1.4 5.8 0 0 Z transform="translate(68.7 112.0) rotate(171)"" fill="#ffffff" opacity="0.29"/><path d="M0 0 C6.6 -6.0 13.8 -1.2 10.8 4.2 C7.8 9.6 1.8 7.2 0 0 Z transform="translate(291.9 58.7) rotate(13)"" fill="#ffffff" opacity="0.33"/><path d="M0 0 C6.9 -6.2 14.3 -1.2 11.2 4.4 C8.1 10.0 1.9 7.5 0 0 Z transform="translate(234.3 193.2) rotate(326)"" fill="#ffffff" opacity="0.45"/><path d="M0 0 C3.9 -3.5 8.1 -0.7 6.4 2.5 C4.6 5.7 1.1 4.2 0 0 Z transform="translate(229.0 232.4) rotate(262)"" fill="#ffffff" opacity="0.28"/><path d="M0 0 C5.8 -5.3 12.1 -1.1 9.5 3.7 C6.8 8.4 1.6 6.3 0 0 Z transform="translate(163.8 100.3) rotate(323)"" fill="#ffffff" opacity="0.22"/><path d="M0 0 C4.1 -3.7 8.5 -0.7 6.7 2.6 C4.8 5.9 1.1 4.4 0 0 Z transform="translate(154.5 117.4) rotate(56)"" fill="#ffffff" opacity="0.41"/><path d="M0 0 C7.0 -6.4 14.6 -1.3 11.5 4.5 C8.3 10.2 1.9 7.6 0 0 Z transform="translate(106.6 113.5) rotate(36)"" fill="#ffffff" opacity="0.26"/><path d="M0 0 C7.2 -6.6 15.1 -1.3 11.8 4.6 C8.5 10.5 2.0 7.9 0 0 Z transform="translate(99.7 84.7) rotate(160)"" fill="#ffffff" opacity="0.43"/><path d="M0 0 C5.7 -5.2 11.9 -1.0 9.3 3.6 C6.7 8.3 1.6 6.2 0 0 Z transform="translate(246.2 28.6) rotate(269)"" fill="#ffffff" opacity="0.44"/><path d="M0 0 C4.2 -3.8 8.8 -0.8 6.9 2.7 C5.0 6.1 1.1 4.6 0 0 Z transform="translate(54.0 61.3) rotate(142)"" fill="#ffffff" opacity="0.45"/><path d="M0 0 C5.1 -4.7 10.8 -0.9 8.4 3.3 C6.1 7.5 1.4 5.6 0 0 Z transform="translate(284.3 34.8) rotate(298)"" fill="#ffffff" opacity="0.50"/>
<circle cx="160" cy="152" r="126" fill="#ffffff" opacity=".45"/>
<path d="M67.75348486688699 198.0 C53.75348486688699 118.0, 266.246515133113 118.0, 252.246515133113 198.0 L266.246515133113 358.0 L53.75348486688699 358.0 Z" fill="#ca89a3"/>
<path d="M56 320 C64 244, 256 244, 264 320 Z" fill="url(#cloth3923)"/>
<path d="M134 233 L160 188 L186 233 Z" fill="#f3bfa4"/>
<ellipse cx="160" cy="158" rx="76" ry="87" fill="#f3bfa4"/>
<g>
<path d="M91 128 C80 97, 240 97, 229 128 L236 144 L84 144 Z" fill="url(#hair3923)"/>
</g>
<path d="M83.75348486688699 142.0 C77.75348486688699 70.82306417233588, 242.246515133113 70.82306417233588, 236.246515133113 142.0 C205.7479090798678 114.0, 175.2493030266226 128.0, 164.0 124.0 C137.1260454600661 120.0, 106.6274394068209 128.0, 83.75348486688699 142.0 Z" fill="#f7a8c4"/><path d="M91.37813638019828 140.0 C121.8767424334435 118.0, 152.3753484866887 126.0, 156.18767424334436 150.0 C129.5013939467548 142.0, 106.6274394068209 136.0, 91.37813638019828 140.0 Z" fill="#f9bed3" opacity=".55"/>
<ellipse cx="130" cy="170" rx="16.9" ry="12.7" fill="#7c5cd6"/><ellipse cx="130" cy="173" rx="10.5" ry="8.6" fill="#2b1c33"/><circle cx="125" cy="164" r="5.1" fill="#ffffff"/><circle cx="136" cy="176" r="2.7" fill="#ffffff" opacity=".9"/><path d="M110 141 Q130 132 150 140" stroke="#3b2a45" stroke-width="3.4" fill="none" stroke-linecap="round"/><ellipse cx="190" cy="170" rx="16.9" ry="12.7" fill="#7c5cd6"/><ellipse cx="190" cy="173" rx="10.5" ry="8.6" fill="#2b1c33"/><circle cx="185" cy="164" r="5.1" fill="#ffffff"/><circle cx="196" cy="176" r="2.7" fill="#ffffff" opacity=".9"/><path d="M170 141 Q190 132 210 140" stroke="#3b2a45" stroke-width="3.4" fill="none" stroke-linecap="round"/>
<ellipse cx="116" cy="188" rx="11" ry="6.5" fill="#ff9db4" opacity=".5"/>
<ellipse cx="204" cy="188" rx="11" ry="6.5" fill="#ff9db4" opacity=".5"/>
<path d="M151 194 Q160 202 169 194" stroke="#c76b7f" stroke-width="3" fill="none" stroke-linecap="round"/>
<g transform="translate(205 121)"><path d="M0 0 L-24 -13 L-24 13 Z" fill="#fbcfe8"/><path d="M0 0 L24 -13 L24 13 Z" fill="#fbcfe8"/><circle r="6" fill="#d5aec7"/><path d="M0 6 L-9 24 L-2 20 L0 27 L4 20 L11 24 Z" fill="#fbcfe8" opacity=".9"/></g>
<g opacity=".85"><path d="M0 0 C5.0 -4.5 10.3 -0.9 8.1 3.1 C5.9 7.2 1.3 5.4 0 0 Z transform="translate(118.4 214.5) rotate(192)"" fill="#fb923c" opacity=".5"/><path d="M0 0 C5.0 -4.5 10.3 -0.9 8.1 3.1 C5.9 7.2 1.3 5.4 0 0 Z transform="translate(207.5 217.4) rotate(84)"" fill="#fb923c" opacity=".5"/><path d="M0 0 C5.0 -4.5 10.3 -0.9 8.1 3.1 C5.9 7.2 1.3 5.4 0 0 Z transform="translate(238.6 291.0) rotate(166)"" fill="#fb923c" opacity=".5"/><path d="M0 0 C5.0 -4.5 10.3 -0.9 8.1 3.1 C5.9 7.2 1.3 5.4 0 0 Z transform="translate(94.9 285.7) rotate(162)"" fill="#fb923c" opacity=".5"/><path d="M0 0 C5.0 -4.5 10.3 -0.9 8.1 3.1 C5.9 7.2 1.3 5.4 0 0 Z transform="translate(40.8 231.1) rotate(125)"" fill="#fb923c" opacity=".5"/><path d="M0 0 C5.0 -4.5 10.3 -0.9 8.1 3.1 C5.9 7.2 1.3 5.4 0 0 Z transform="translate(290.0 309.4) rotate(331)"" fill="#fb923c" opacity=".5"/></g>
</svg>